<svg xmlns="http://www.w3.org/2000/svg" enable-background="new 0 0 237.192 282.118" viewBox="0 0 237.192 282.118"><path d="M119.817,153.047c1.581,1.94,3.884,2.946,6.206,2.946c1.777,0.001,3.564-0.589,5.049-1.799
		c3.426-2.789,3.941-7.83,1.148-11.255c-9.863-12.123-19.11-21.31-27.317-28.277c-5.428,2.464-13.154,4.84-18.556,5.724
		C95.364,126.943,106.871,137.18,119.817,153.047z"/><path d="M79.062,115.651c0.072-0.097,0.135-0.192,0.218-0.291c0.003-0.003,0.005-0.006,0.008-0.009
		c0.987-1.174,2.724-2.505,5.413-4.195c0.443-0.279,0.913-0.567,1.409-0.867c0.007-0.003,0.011-0.007,0.018-0.011
		c2.044-1.231,4.546-2.646,7.559-4.301c-6.806-4.753-12.442-7.747-16.528-9.585c-2.889,4.091-6.998,7.281-11.846,8.993
		c2.24,1.121,4.039,3.065,4.933,5.509c0.916,2.506,0.804,5.223-0.321,7.645c-1.127,2.422-3.128,4.263-5.636,5.18
		c-11.318,4.133-20.735,7.121-28.797,9.136c-6.024,1.495-10.96,2.381-15.211,2.728c0.349,14.277,2.364,28.658,4.639,43.01
		c0.158,1.004,0.444,1.945,0.829,2.81c0.896,3.146,3.006,5.939,6.111,7.604l0.009,0.007c0.04,0.018,0.145,0.076,0.303,0.174
		c0.317,0.188,0.854,0.521,1.569,1.004c0.027,0.02,0.051,0.034,0.079,0.054c1.516,1.028,3.811,2.724,6.562,5.193
		c5.509,4.944,12.835,12.96,19.526,25.05c5.063,9.168,9.782,20.688,13.018,35.111c1.091,4.863,2.015,10.056,2.726,15.602
		c0.207,1.616,0.714,3.119,1.456,4.463c2.407,4.352,7.296,7.02,12.528,6.353c6.852-0.876,11.691-7.139,10.814-13.985
		c-2.076-16.284-5.854-30.284-10.521-42.213c-2.502-6.395-5.255-12.204-8.147-17.43c-4.015-7.253-8.265-13.388-12.418-18.538
		c-1.188-1.473-2.367-2.868-3.53-4.182l12.754,4.862l-3.08,4.452c1.842,2.608,4.426,6.538,8.05,12.483
		c2.587,4.245,4.285,8.31,5.296,12.163l19.367-27.985c2.184-3.157,2.799-7.146,1.661-10.814c-1.137-3.667-3.899-6.612-7.487-7.98
		l-33.458-12.756c-3.534-18.998,1.03-29.601,9.431-41.616c-0.084-0.293-0.135-0.597-0.114-0.916
		C78.294,116.948,78.56,116.322,79.062,115.651z"/><path d="M57.714 220.694l-.321.465c-3.929 5.677-2.511 13.464 3.166 17.393 2.014 1.394 4.292 2.106 6.569 2.203-2.664-6.483-5.797-13.547-8.974-19.299C58.012 221.198 57.859 220.951 57.714 220.694zM10.279 51.647c-.236.599-.068 1.277.423 1.694L23.13 63.929l-7.869 5.611c-.498.354-.729.973-.588 1.568.141.595.625 1.043 1.227 1.137l11.305 1.759c.077.012.155.018.232.018.726 0 1.365-.529 1.48-1.268.127-.818-.434-1.586-1.25-1.715h-.002L20 69.845l6.437-4.59c.375-.267.607-.697.628-1.157.021-.46-.175-.909-.525-1.206l-10.552-8.989 10.674.503c.512.024.996-.212 1.293-.627.295-.417.361-.953.172-1.427l-4.638-11.61 10.038 5.401c.434.232.951.238 1.391.016.438-.222.739-.643.807-1.13l1.727-12.384 6.131 11.396c.24.446.693.743 1.199.784.505.042 1-.177 1.309-.579l5.949-7.712.514 8.19c.032.525.334.99.8 1.234.466.244 1.021.228 1.47-.043l9.283-5.592-3.666 8.504c-.328.76.022 1.644.784 1.972.762.328 1.644-.023 1.974-.784l5.512-12.791c.26-.599.101-1.295-.391-1.725-.49-.428-1.201-.491-1.76-.155l-11.166 6.727-.606-9.706c-.04-.623-.46-1.157-1.057-1.34-.599-.184-1.247.022-1.63.517l-6.971 9.04-7.207-13.398c-.308-.57-.949-.88-1.586-.766-.638.114-1.133.628-1.223 1.269L33.05 42.479l-11.775-6.333c-.554-.299-1.238-.218-1.709.202-.47.419-.627 1.091-.393 1.676l5.301 13.278L11.743 50.7C11.101 50.67 10.517 51.048 10.279 51.647zM2.914 111.896c-1.497 2.551-2.849 5.318-2.914 9.149-.01 1.822.417 3.926 1.477 5.812 1.588 2.891 4.334 4.756 6.88 5.657 2.597.939 5.206 1.227 8.104 1.239 4.953-.015 10.862-.933 18.543-2.839 7.665-1.914 17.049-4.854 28.596-9.073 4.15-1.518 6.283-6.112 4.766-10.259-1.095-2.998-3.795-4.933-6.772-5.212-.096.018-.188.045-.284.062-.98.167-1.976.267-2.977.313-.074.025-.15.042-.225.069-11.163 4.082-20.074 6.855-26.978 8.579-5.49 1.378-9.737 2.068-12.677 2.284 1.625-1.931 3.919-4.094 6.385-6.064l1.681 1.212c-.862.673-1.706 1.374-2.509 2.083 1.847-.335 4.045-.804 6.632-1.454 6.291-1.571 13.868-3.923 22.562-7.002-9.365-1.527-16.906-8.363-19.531-17.243-3.674.697-6.922 2.196-10.275 4.066-4.13 2.359-8.247 5.374-11.917 8.704-1.016.921-2.003 1.863-2.939 2.826C6.381 107.042 4.461 109.359 2.914 111.896z"/><path d="M71.77,80.995l7.704-1.586c-0.291-2.276-0.924-4.448-1.846-6.463l-7.415,0.784l4.972-4.896
		c-3.975-5.317-10.248-8.835-17.399-9.034c-12.417-0.344-22.764,9.445-23.109,21.863c-0.344,12.419,9.443,22.766,21.86,23.109
		c11.428,0.318,21.094-7.945,22.835-18.939L71.77,80.995z"/><polygon points="92.248 51.999 93.565 53.665 124.357 18.923 121.696 15.234"/><polygon points="141.019 47.877 140.65 43.343 96.428 59.571 96.692 61.678"/><polygon points="82.742 46.106 84.668 46.998 96.44 2.09 92.399 0"/><path d="M177.151,132.829c19.669,11.03,38.061,24.479,55.669,38.749c5.678,4.713,5.853,4.528,0.368-0.43
		c-17.027-15.024-34.846-29.264-54.311-41.289c-6.366-3.891-12.252-5.82-12.691-4.865
		C165.699,126.037,170.752,129.279,177.151,132.829z"/><path d="M188.165,103.739c1.174-0.726,1.537-2.268,0.812-3.441c-0.728-1.174-2.268-1.538-3.441-0.812
		c-8.445,5.237-18.139,6.417-24.871,6.411c-2.502,0-4.586-0.16-6.029-0.315c-0.512-0.055-0.936-0.109-1.277-0.157
		c-19.324-4.335-38.198-20.504-46.056-27.92l-3.9-4.091c-0.559-1.921-1.436-4.468-2.162-4.465c-0.594,0-1.414,1.743-2.08,3.46
		c-0.436-1.106-0.912-1.978-1.336-1.977c-0.637,0.001-1.537,2.018-2.227,3.852l-5.174,0.622l-2.332,2.343l-4.889,3.92l-0.295,0.998
		l1.242,3.925l0.349,0.187l1.379-2.009l3.747,1.557l2.819-1.14l0.375,0.926l-3.198,1.296l-3.378-1.403l-1.428,2.081l-0.232-0.125
		l0.216,0.681l1.934,1.2l3.828,0.815l8.639,11.13l7.615-5.934c-1.799,2.616-3.24,5.389-3.969,7.828
		c-5.979,3.625-25.307,12.938-22.279,15.156c2.512,1.84,18.426-2.771,25.568-6.474c9.676,8.434,32.438,15.389,37.741,16.929
		c4.795,6.584,12.605,16.43,15.215,14.59c3.205-2.259-5.51-19.977-8.578-25.959l3.25-6.905c1.607,0.185,3.99,0.381,6.902,0.382
		C167.945,110.888,178.536,109.681,188.165,103.739z M91.129,81.384c-0.709,0.524-1.713,0.38-2.238-0.331
		c-0.531-0.71,2.039-2.623,2.564-1.913C91.983,79.852,91.838,80.855,91.129,81.384z"/></svg>