<?xml version="1.0" ?><!DOCTYPE svg  PUBLIC '-//W3C//DTD SVG 1.1//EN'  'http://www.w3.org/Graphics/SVG/1.1/DTD/svg11.dtd'><svg height="512px" style="enable-background:new 0 0 512 512;" version="1.1" viewBox="0 0 512 512" width="512px" xml:space="preserve" xmlns="http://www.w3.org/2000/svg" xmlns:xlink="http://www.w3.org/1999/xlink"><g id="C_-_12_x2C__bank_x2C__Architecture_x2C__building_x2C__court_x2C__estate_x2C__government_x2C__house_x2C__property"><g><polygon points="90.107,380.337 90.107,406.727 421.992,406.727 421.992,380.337 399.734,380.337 345.852,380.337     282.988,380.337 229.105,380.337 166.243,380.337 112.363,380.337   "/><polygon points="85.421,416.097 72.146,416.097 72.146,444.498 439.95,444.498 439.95,416.097 426.678,416.097   "/><rect height="115.761" width="44.509" x="117.048" y="255.206"/><path d="M435.654,192.204h14.363l-43.186-19.7c-0.021-0.009-0.043-0.016-0.063-0.025l-150.715-68.757    c-15.37,7.054-30.115,13.798-44.421,20.325c-22.456,10.248-43.819,19.959-64.747,29.473    c-28.489,12.95-55.685,25.313-84.901,38.684h14.456H435.654z M182.43,161.844c12.145-4.967,23.122-10.042,34.742-15.416    c11.669-5.396,23.735-10.975,37.102-16.439c1.181-0.483,2.506-0.462,3.672,0.053l71.843,31.855    c2.024,0.897,3.145,3.088,2.686,5.254c-0.459,2.166-2.37,3.715-4.584,3.715H184.204c-2.239,0-4.166-1.584-4.598-3.781    C179.174,164.888,180.357,162.691,182.43,161.844z"/><path d="M255.978,139.42c-12.449,5.145-23.839,10.412-34.872,15.513c-4.689,2.168-9.444,4.367-14.295,6.562h98.953L255.978,139.42    z"/><path d="M254.092,94.312c0.621-0.285,1.288-0.427,1.955-0.427c0.664,0,1.327,0.141,1.945,0.423l146.035,66.618V67.503H108.066    v93.375c11.813-5.377,23.521-10.699,35.283-16.045C178.063,129.053,213.957,112.737,254.092,94.312z"/><polygon points="430.969,201.575 81.125,201.575 81.125,245.834 112.363,245.834 166.243,245.834 229.105,245.834     282.988,245.834 345.852,245.834 399.734,245.834 430.969,245.834   "/><rect height="115.761" width="44.512" x="233.791" y="255.206"/><rect height="115.761" width="44.512" x="350.537" y="255.206"/></g></g><g id="Layer_1"/></svg>