<svg xmlns="http://www.w3.org/2000/svg" enable-background="new 0 0 98.877 254.04" viewBox="0 0 98.877 254.04"><path d="M69.867,115.386h-0.076c-2.975-0.036-5.107-0.834-6.877-1.582c-1.744-0.77-3.211-1.602-4.504-2.336l-0.523-0.299
		c-2.435-1.389-4.95-2.828-7.707-3.91c-1.179-0.465-2.214-1.134-3.101-1.94c-0.443-0.021-0.888-0.052-1.329-0.052
		c-7.561,0.036-12.541,2.862-17.813,5.854c-0.878,0.498-1.754,0.993-2.635,1.475l-0.76,0.381c-2.016,1.019-4.529,2.284-8.543,2.403
		h-0.033h-0.113c-0.008,0-0.016-0.001-0.024-0.001v20.701l-8.53,104.591c-0.555,6.807,4.514,12.772,11.318,13.327
		c6.805,0.554,12.773-4.51,13.328-11.317l7.429-91.083h7.002l7.429,91.083c0.555,6.808,6.523,11.872,13.328,11.317
		c6.805-0.555,11.873-6.52,11.318-13.327l-8.53-104.59v-20.698c-0.013,0-0.027,0.002-0.04,0.002H69.867z"/><path d="M10.904,112.006c1.611,0.821,3.412,1.178,4.949,1.178c0.027,0,0.055,0,0.083-0.002c3.948-0.116,6.171-1.465,8.314-2.518
		c6.193-3.372,12.021-7.554,21.502-7.597c1.5,0,3.094,0.111,4.813,0.368c4.369,0.657,8.443-2.352,9.1-6.722
		c0.656-4.372-2.353-8.442-6.723-9.099c-2.498-0.376-4.896-0.548-7.189-0.548c-9.736-0.018-17.395,3.151-22.736,5.977
		c-2.541,1.339-4.619,2.6-6.066,3.379c-0.037-0.066-0.074-0.137-0.111-0.21c-0.243-0.481-0.454-1.095-0.605-1.785l2.019-1.264
		c1.07-0.611,2.344-1.334,3.738-2.067c7.924-4.193,15.672-6.23,23.68-6.23c2.547,0,5.078,0.192,7.601,0.571
		c2.626,0.395,4.86,1.772,6.409,3.693c2.563,1.131,4.81,2.334,6.865,3.492c0.145,0.083,0.279,0.16,0.42,0.24l-1.623-8.444
		c1.043,0.426,1.751,1.033,2.42,1.758c1.197,1.372,2.004,3.699,1.986,6.036c0.012,1.563-0.354,3.041-0.84,4
		c-0.037,0.072-0.072,0.142-0.109,0.208c-0.879-0.478-2.027-1.133-3.334-1.881c-1.185-0.668-2.528-1.407-4.017-2.151
		c0.474,1.456,0.637,3.036,0.394,4.65c-0.727,4.826-4.862,8.486-9.702,8.669c2.623,1.14,5.007,2.504,7.354,3.845
		c1.355,0.767,2.703,1.529,4.277,2.223c1.574,0.666,3.434,1.377,6.044,1.408c0.022,0,0.044,0,0.065,0
		c1.547,0,3.351-0.358,4.963-1.177c3.945-1.993,6.711-5.252,8.412-8.71c1.711-3.489,2.486-7.266,2.494-11.084
		c-0.014-5.053-1.396-10.318-4.626-14.858L68.912,71.09l-11.118,7.924l-1.324-0.894c-0.052-0.035-5.283-3.546-12.774-6.503
		c-4.356-1.719-9.532-3.276-14.951-3.868h-5.188c-0.298,0-0.591,0.021-0.88,0.054c-7.006,0.307-13.135,3.471-16.904,8.045
		C1.705,80.701,0.016,86.597,0,92.215c0.008,3.741,0.759,7.446,2.4,10.877c0.033,0.069,0.06,0.139,0.094,0.207
		C4.193,106.761,6.965,110.021,10.904,112.006z"/><path d="M64.355,27.099C75.437,20.242,83.938,0.18,82.574,0.002c-1.52-0.198-6.663,18.123-36.36,25.96
		c-5.975,1.577-8.245,6.261-8.964,10.842l-1.328,0.639c0,0-38.644,3.495-29.761,32.893c21.732-14.355,51.598,5.88,51.598,5.88
		l10.957-7.81l12.221,6.27l1.393-2.117l4.871-3.219l0.044-4.249l-8.819-20.803l-7.912-6.277l-7.082-2.932
		c1.581-0.594,3.482-0.949,5.787-0.926c13.444,0.134,30.973-20.53,29.578-21.164C97.531,12.412,88.931,25.575,64.355,27.099z
		 M71.954,46.656c1.369-0.174,2.62,0.795,2.794,2.164c0.174,1.369-0.795,2.62-2.164,2.794c-1.369,0.174-2.62-0.795-2.794-2.164
		C69.616,48.081,70.585,46.83,71.954,46.656z"/></svg>