<svg xmlns="http://www.w3.org/2000/svg" enable-background="new 0 0 165.936 232.18" viewBox="0 0 165.936 232.18"><path d="M46.948 210.938c20.917-10.116 30.442-31.581 34.744-47.598-9.363-4.257-14.062-8.227-14.39-8.51l-1.768-1.524 11.891-30.447c-12.577 4.889-24.707 16.534-33.167 41.005-14.217 41.118-30.377 42.477-41.227 37.879S11.298 228.179 46.948 210.938zM127.119 173.239l.04.409 4.894 49.515c.543 5.496 5.44 9.511 10.935 8.968 5.496-.543 9.511-5.438 8.967-10.936l-4.821-48.774-.055-.559C142.454 172.728 135.715 173.51 127.119 173.239zM85.844 164.616l-7.924 55.968c-.775 5.469 3.03 10.529 8.498 11.303 5.467.774 10.529-3.031 11.303-8.499l7.485-52.866C97.493 168.878 91.056 166.755 85.844 164.616z"/><path d="M110.618,168.598c27.904,4.836,44.233-1.468,44.233-1.468l-1.756-60.303c-0.144-0.085-0.283-0.168-0.415-0.248
		l-0.513-0.309c-1.313-0.853-2.574-1.815-3.908-2.834c-0.427-0.326-0.869-0.663-1.342-1.019c-5.774-4.394-13.566-9.625-22.861-11.34
		c-9.338-1.515-18.432,0.789-25.344,2.986c-0.581,0.181-1.126,0.353-1.649,0.519c-1.584,0.506-3.083,0.984-4.594,1.341l-0.055,0.014
		l-0.054,0.01l-0.48,0.096c-0.151,0.031-0.31,0.063-0.474,0.094l-21.947,56.195C69.457,152.331,82.714,163.762,110.618,168.598z"/><path d="M121.442,16.729C117.339,4.011,107.603,0,107.603,0l-1.975,22.705l-8.931,4.257L94.4,37.627L77.372,48.4l1.987,3.314
		l15.874,3.792l5.068-3.516l11.023,2.362l9.607,15.239l-1.583,1.802l-9.453-14.995l-6.543-1.402
		c-3.363,2.085-6.324,4.994-9.092,8.582c-3.635,4.715-7.149,10.711-11.321,18.58c-0.479,0.938-0.949,1.84-1.245,3.4
		c-0.203,1.154-0.31,3.202,1.036,5.32c0.649,1.016,1.6,1.837,2.488,2.324c0.896,0.495,1.708,0.715,2.376,0.833
		c2.187,0.306,3.214-0.041,4.366-0.253c1.907-0.452,3.791-1.103,6.083-1.818c3.404-1.08,7.564-2.283,12.155-2.986
		c-2.135-1.488-3.543-3.899-3.696-6.653c-0.132-2.389,0.718-4.609,2.197-6.267c-2.68,0.393-5.18,0.918-7.462,1.483l3.894-3.106
		c2.817-0.537,5.554-0.894,8.231-1.086c0.439-0.094,0.886-0.166,1.348-0.191c3.97-0.221,7.986,0.014,11.938,0.699
		c0.13,0.023,0.258,0.054,0.388,0.077c0.123,0.02,0.247,0.033,0.37,0.055c3.952,0.685,7.813,1.816,11.48,3.36
		c0.422,0.178,0.82,0.395,1.203,0.631c2.457,1.083,4.916,2.339,7.388,3.794c-0.037-0.133-0.075-0.264-0.112-0.393
		c-0.41-1.411-0.843-2.675-1.294-3.782l2.542,0.5c0.294,0.816,0.583,1.697,0.865,2.669c0.49,1.682,0.958,3.6,1.411,5.771
		c-6.038-4.096-14.303-8.719-24.615-10.513c-3.589-0.622-7.418-0.894-11.439-0.67l-0.002,0c-3.582,0.199-6.329,3.266-6.131,6.85
		c0.199,3.585,3.266,6.329,6.849,6.13c2.993-0.163,5.819,0.035,8.503,0.5c10.224,1.753,18.539,7.526,24.198,11.833
		c1.918,1.445,3.473,2.691,5.117,3.759c1.013,0.587,1.864,1.26,4.026,1.708c0.669,0.114,1.507,0.18,2.518,0.016
		c1-0.16,2.172-0.612,3.125-1.351c1.981-1.542,2.569-3.506,2.766-4.661c0.246-1.569,0.107-2.577-0.029-3.621
		c-0.879-6.054-1.768-11.155-2.831-15.601c-0.485-2.027-1.002-3.932-1.577-5.706c-1.501-4.626-3.482-8.584-6.233-11.803
		c-0.594-0.696-1.212-1.369-1.883-1.993c-0.896-0.838-1.848-1.593-2.844-2.277l2.381-1.399l3.903-2.293l-8.328-0.039l-1.508-0.007
		l0.46-0.454l7.652-7.553l-10.167,1.647l7.279-7.635l-3.584-3.174l-21.569-19.101L121.442,16.729z M100.795,36.095
		c-1.048-1.306,3.683-5.101,4.731-3.794s0.838,3.215-0.468,4.263S101.843,37.401,100.795,36.095z"/></svg>