<?xml version="1.0" ?><svg height="105px" version="1.1" viewBox="0 0 105 105" width="105px" xmlns="http://www.w3.org/2000/svg" xmlns:sketch="http://www.bohemiancoding.com/sketch/ns" xmlns:xlink="http://www.w3.org/1999/xlink"><title/><defs/><g fill="none" fill-rule="evenodd" id="Imoticon" stroke="none" stroke-width="1"><path d="M52,94 C75.1959606,94 94,75.1959606 94,52 C94,28.8040394 75.1959606,10 52,10 C28.8040394,10 10,28.8040394 10,52 C10,75.1959606 28.8040394,94 52,94 Z M40.5,46.8674316 C45.2219238,46.8674307 46,52 47,51 C47,44 45.0578613,39.0000007 40.5,39 C35.9421387,38.9999993 34,44 34,51 C35,52 35.7780762,46.8674324 40.5,46.8674316 Z M63.5,46.8674316 C68.2219238,46.8674307 69,52 70,51 C70,44 68.0578613,39.0000007 63.5,39 C58.9421387,38.9999993 57,44 57,51 C58,52 58.7780762,46.8674324 63.5,46.8674316 Z M52,83 C67.4639738,83 80,71.5832618 80,57.5 C80,56 67.4639738,60.9243164 52,60.9243164 C36.5360262,60.9243164 24,56 24,57.5 C24,71.5832618 36.5360262,83 52,83 Z M52,83" fill="#000000" id="imoticon_1"/></g></svg>