<?xml version="1.0" ?><svg height="105px" version="1.1" viewBox="0 0 105 105" width="105px" xmlns="http://www.w3.org/2000/svg" xmlns:sketch="http://www.bohemiancoding.com/sketch/ns" xmlns:xlink="http://www.w3.org/1999/xlink"><title/><defs/><g fill="none" fill-rule="evenodd" id="Imoticon" stroke="none" stroke-width="1"><path d="M52,94 C75.1959606,94 94,75.1959606 94,52 C94,28.8040394 75.1959606,10 52,10 C28.8040394,10 10,28.8040394 10,52 C10,75.1959606 28.8040394,94 52,94 Z M45,75 C45,75 42.0273442,75.6594238 42.0273437,77.5 C42.0273434,79.3405762 45,80 45,80 L59,80 C59,80 61.9960938,79.2485352 61.9960938,77.5 C61.9960935,75.7514648 59,75 59,75 L45,75 Z M70.5,28.1439004 C75.9675293,28.1439009 79.8417969,32.4555664 79.8417969,30.996582 C79.8417967,29.5375977 76.2983398,25.5539551 70.5,24.9765625 C65.1929006,24.4480871 60.0290531,25.8483887 60.0290527,27.6806641 C60.0290525,29.5129395 65.0324707,28.1438999 70.5,28.1439004 Z M34.3708496,28.1439004 C28.9033203,28.1439009 25.0290527,32.4555664 25.0290527,30.996582 C25.0290529,29.5375977 28.5725098,25.5539551 34.3708496,24.9765625 C39.677949,24.4480871 44.8417965,25.8483887 44.8417969,27.6806641 C44.8417971,29.5129395 39.8383789,28.1438999 34.3708496,28.1439004 Z M70.5,66 C77.9558445,66 84,59.9558445 84,52.5 C84,45.0441555 77.9558445,39 70.5,39 C63.0441555,39 57,45.0441555 57,52.5 C57,59.9558445 63.0441555,66 70.5,66 Z M70.5,57 C72.9852815,57 75,54.9852815 75,52.5 C75,50.0147185 72.9852815,48 70.5,48 C68.0147185,48 66,50.0147185 66,52.5 C66,54.9852815 68.0147185,57 70.5,57 Z M33.5,66 C40.9558445,66 47,59.9558445 47,52.5 C47,45.0441555 40.9558445,39 33.5,39 C26.0441555,39 20,45.0441555 20,52.5 C20,59.9558445 26.0441555,66 33.5,66 Z M33.5,57 C35.9852815,57 38,54.9852815 38,52.5 C38,50.0147185 35.9852815,48 33.5,48 C31.0147185,48 29,50.0147185 29,52.5 C29,54.9852815 31.0147185,57 33.5,57 Z M33.5,57" fill="#000000" id="imoticon_15"/></g></svg>