<?xml version="1.0" ?><svg height="105px" version="1.1" viewBox="0 0 105 105" width="105px" xmlns="http://www.w3.org/2000/svg" xmlns:sketch="http://www.bohemiancoding.com/sketch/ns" xmlns:xlink="http://www.w3.org/1999/xlink"><title/><defs/><g fill="none" fill-rule="evenodd" id="Imoticon" stroke="none" stroke-width="1"><path d="M52,94 C75.1959606,94 94,75.1959606 94,52 C94,28.8040394 75.1959606,10 52,10 C28.8040394,10 10,28.8040394 10,52 C10,75.1959606 28.8040394,94 52,94 Z M52,76.7665772 C46.4893799,76.7665772 41.0000005,82.2460691 41,80.405493 C40.9999997,78.5649168 43.0841064,70.6708739 52,70.6708739 C60.9158936,70.6708739 63,78.6569578 63,80.405493 C62.9999998,82.1540281 57.5106201,76.7665771 52,76.7665772 Z M24.8999023,62.6689454 C26.0073242,65.0439454 28.1289062,63.9433594 28.1289062,63.9433594 L40.2177734,59.1567383 C40.2177734,59.1567383 43.1586914,59.1567383 42.6586914,56.4033203 C42.1586915,53.6499023 39.2973633,54.0576172 39.2973633,54.0576172 L26.0073242,59.1567383 C26.0073242,59.1567383 23.7924805,60.2939454 24.8999023,62.6689454 Z M79.4058392,62.6689454 C78.2984173,65.0439454 76.1768353,63.9433594 76.1768353,63.9433594 L64.0879681,59.1567383 C64.0879681,59.1567383 61.1470502,59.1567383 61.6470502,56.4033203 C62.1470501,53.6499023 65.0083783,54.0576172 65.0083783,54.0576172 L78.2984174,59.1567383 C78.2984174,59.1567383 80.5132611,60.2939454 79.4058392,62.6689454 Z M79.4058392,62.6689454" fill="#000000" id="imoticon_20"/></g></svg>