<svg xmlns="http://www.w3.org/2000/svg" enable-background="new 0 0 87.997 217.509" viewBox="0 0 87.997 217.509"><path d="M38.714 39.347c4.055 0 9.983 1.935 12.567 4.767 9.385-2.709 16.249-11.357 16.249-21.614 0-12.427-10.072-22.5-22.5-22.5-12.426 0-22.5 10.073-22.5 22.5 0 8.103 4.285 15.202 10.71 19.164C33.945 40.543 35.458 39.347 38.714 39.347zM19.221 188.073l7.256-45.581c-.393-.125-.792-.244-1.177-.378-.062-.02-.123-.04-.184-.062-3.758-1.333-7.098-3.067-9.981-5.176-.086-.062-.162-.127-.247-.19-.263.491-.427 1.042-.427 1.635v0c0 1.925 1.575 3.5 3.5 3.5h2.21l-11.889 74.69 6.255.996 3.571-22.436h30.915c.971-2.462 1.829-4.799 2.573-7H19.221zM74.14 216.513l-.426-2.677c-1.463 1.537-3.228 2.746-5.18 3.569L74.14 216.513zM20.032 97.172l13.096 1.957 34.693-5.178c-1.005-10.331-2.403-17.074-3.67-21.405l2.246-.53c1.409 4.853 2.904 12.366 3.914 23.888l-29.397 4.388 36.871 5.509c2.465.369 4.698 1.315 6.609 2.662 1.624-1.574 2.571-3.813 2.425-6.226-.938-15.505-2.695-26.295-4.808-33.906-3.137-11.3-7.058-15.585-10.255-17.83-3.122-2.194-6.038-2.495-7.95-2.356H52.619c-.026.139-.055.278-.096.415C45.167 73.256 29.059 89.582 20.032 97.172z"/><path d="M73.208 136.462l-58.002-8.669c-2.449-.366-4.718-1.299-6.679-2.694 1.807 3.194 4.499 6.551 8.378 9.356 2.633 1.924 5.689 3.52 9.158 4.75.059.02.117.043.178.061 5.183 1.813 11.285 2.807 18.329 2.807.051 0 .1 0 .15 0 .672 0 1.359-.012 2.056-.029 1.269.354 3.972 1.303 6.227 3.26 1.563 1.328 3.039 3.039 4.276 5.725 1.218 2.691 2.228 6.475 2.235 12.127.016 7.883-2.095 19.414-8.587 35.238-2.617 6.387.44 13.688 6.829 16.305 1.551.635 3.156.936 4.733.936 4.924 0 9.59-2.928 11.572-7.766 7.339-17.947 10.439-32.484 10.452-44.713.013-9.295-1.871-17.266-5.07-23.723-.514-1.047-1.069-2.032-1.642-2.987-.752.115-1.515.188-2.293.188C74.747 136.633 73.974 136.576 73.208 136.462zM.002 93.585c.002.112.004.224.011.335.009.147.024.294.042.441.014.117.027.234.045.35.022.136.051.272.08.408.026.123.052.246.085.367.033.125.073.248.112.371.041.129.082.258.13.384.042.112.09.222.137.333.057.134.116.267.18.397.05.102.105.202.16.302.073.133.148.265.229.394.027.042.048.087.075.129.028.044.063.081.092.123.131.192.27.378.416.558.057.07.112.143.171.211.193.221.396.433.612.632.067.061.138.115.206.174.161.139.326.272.498.398.091.066.183.128.276.19.168.113.341.218.519.318.084.047.167.096.253.14.242.125.49.239.747.339.022.008.042.019.064.028.285.109.578.2.878.276.069.018.139.029.208.044.177.04.354.081.536.109 2.612-2.516 6.079-4.118 9.851-4.333.271-.215.548-.436.84-.674 8.511-6.927 25.351-23.201 32.865-48.426 1.262-4.234-14.074-8.803-15.334-4.568-4.353 14.611-12.657 25.756-19.631 33.095l-.322-3.055c5.556-6.116 11.733-14.602 15.865-25.229h-5.183c-.407 0-.804.041-1.194.102l-.018-.112c-2.264.368-22.186 4.751-24.495 44.838-.003.05.001.098-.001.148C-.001 93.275-.001 93.43.002 93.585zM77.341 108.768l-57.999-8.666c-6.828-1.021-13.19 3.688-14.209 10.516-1.021 6.826 3.687 13.189 10.516 14.209l57.999 8.668c.625.093 1.247.139 1.861.139 6.086 0 11.422-4.451 12.35-10.654C88.877 116.15 84.169 109.789 77.341 108.768z"/></svg>