<?xml version="1.0" ?><svg height="105px" version="1.1" viewBox="0 0 105 105" width="105px" xmlns="http://www.w3.org/2000/svg" xmlns:sketch="http://www.bohemiancoding.com/sketch/ns" xmlns:xlink="http://www.w3.org/1999/xlink"><title/><defs/><g fill="none" fill-rule="evenodd" id="Imoticon" stroke="none" stroke-width="1"><path d="M52,94 C75.1959606,94 94,75.1959606 94,52 C94,28.8040394 75.1959606,10 52,10 C28.8040394,10 10,28.8040394 10,52 C10,75.1959606 28.8040394,94 52,94 Z M40.5,46.8674316 C45.2219238,46.8674307 46,53 47,52 C47,45 45.0578613,39.0000007 40.5,39 C35.9421387,38.9999993 34,45 34,52 C35,53 35.7780762,46.8674324 40.5,46.8674316 Z M63.5,46.8674316 C68.2219238,46.8674307 69,53 70,52 C70,45 68.0578613,39.0000007 63.5,39 C58.9421387,38.9999993 57,45 57,52 C58,53 58.7780762,46.8674324 63.5,46.8674316 Z M52,74.2961425 C66.1437988,74.2961434 70.9367676,65 71,62 C71,61.2437255 62.5996094,69.5139164 52,69.513916 C41.4003906,69.5139155 32,61.2437255 32,62 C32,65 37.8562012,74.2961419 52,74.2961425 Z M52,74.2961425" fill="#000000" id="imoticon_4"/></g></svg>