<?xml version="1.0" ?><svg height="105px" version="1.1" viewBox="0 0 105 105" width="105px" xmlns="http://www.w3.org/2000/svg" xmlns:sketch="http://www.bohemiancoding.com/sketch/ns" xmlns:xlink="http://www.w3.org/1999/xlink"><title/><defs/><g fill="none" fill-rule="evenodd" id="Imoticon" stroke="none" stroke-width="1"><path d="M52,94 C75.1959606,94 94,75.1959606 94,52 C94,28.8040394 75.1959606,10 52,10 C28.8040394,10 10,28.8040394 10,52 C10,75.1959606 28.8040394,94 52,94 Z M52.6032715,76.1235404 C48.5102539,76.1321594 41.3825684,79.6738334 41.3825684,79.6738334 C41.3825684,79.6738334 41.9729004,70.0977668 52,70.1059623 C62.0270996,70.1141582 62.6174316,79.7241264 62.6174316,79.7241264 C62.6174316,79.7241264 56.6962891,76.1149213 52.6032715,76.1235404 Z M65.6159672,32.4755859 C66.2424321,31.90625 71.9562993,37.4951173 74.7124028,38.3959961 C77.4685063,39.2968749 83.8088383,39.2180174 83.8088383,40.625 C83.8088385,42.5879047 78.7072757,44.4975589 73.7185063,42.3076172 C68.7297368,40.1176755 64.9895024,33.0449219 65.6159672,32.4755859 Z M38.7402344,32.4755859 C38.1137695,31.90625 32.3999023,37.4951173 29.6437988,38.3959961 C26.8876953,39.2968749 20.5473633,39.2180174 20.5473633,40.625 C20.5473631,42.5879047 25.6489259,44.4975589 30.6376953,42.3076172 C35.6264648,40.1176755 39.3666992,33.0449219 38.7402344,32.4755859 Z M40.5,61 C42.9852815,61 45,58.5375663 45,55.5 C45,52.4624337 42.9852815,50 40.5,50 C38.0147185,50 36,52.4624337 36,55.5 C36,58.5375663 38.0147185,61 40.5,61 Z M63.5,61 C65.9852815,61 68,58.5375663 68,55.5 C68,52.4624337 65.9852815,50 63.5,50 C61.0147185,50 59,52.4624337 59,55.5 C59,58.5375663 61.0147185,61 63.5,61 Z M24,75 C28.970563,75 33,70.7467054 33,65.5 C33,60.2532946 27.8183594,58.1479492 24.6342773,45.6948242 C20.5092773,58.1479492 15,60.2532946 15,65.5 C15,70.7467054 19.029437,75 24,75 Z M24,75" fill="#000000" id="imoticon_26"/></g></svg>