<svg xmlns="http://www.w3.org/2000/svg" enable-background="new 0 0 248.207 263.001" viewBox="0 0 248.207 263.001"><circle cx="210.166" cy="45.498" r="22.5"/><path d="M215.379,72.384c-0.615,0.153-1.202,0.363-1.767,0.613c-0.345,0.102-0.688,0.218-1.025,0.369l-23.868,10.722
		l-29.384-22.297c-3.52-2.669-8.539-1.981-11.209,1.537c-2.671,3.52-1.982,8.538,1.537,11.209l33.166,25.167
		c1.416,1.074,3.119,1.627,4.837,1.627c1.111,0,2.229-0.231,3.277-0.702l14.488-6.508c0.141,0.759,0.314,1.512,0.527,2.254
		c0.308,1.576,0.646,3.238,0.995,4.955l6.127-12.241c1.758-3.511,5.289-5.692,9.217-5.692c1.609,0,3.158,0.367,4.604,1.091
		c2.46,1.231,4.294,3.347,5.163,5.958s0.669,5.403-0.563,7.863l-17.293,34.549c-0.592,1.183-1.414,2.227-2.392,3.092
		c0.088,3.972-0.057,7.902-0.564,11.69c-0.059,1.002-0.09,1.929-0.098,2.802l-9.294,39.495c-0.295,1.256-0.395,2.549-0.294,3.835
		l4.5,57.7c0.511,6.553,5.985,11.529,12.448,11.529c0.326,0,0.655-0.013,0.985-0.039c6.883-0.536,12.027-6.551,11.49-13.434
		l-4.349-55.76l7.615-32.36c5.747-1.87,10.794-6.288,12.75-16.355c2.586-22.215,1.123-35.346-5.682-55.52
		C236.291,74.891,223.916,70.255,215.379,72.384z"/><path d="M225.873 86.545c-3.95-1.978-8.757-.379-10.735 3.573l-15.759 31.485-34.226 10.496c-4.224 1.295-6.598 5.77-5.303 9.994 1.056 3.443 4.223 5.656 7.646 5.656.776 0 1.567-.114 2.349-.354l37.5-11.5c2.092-.642 3.829-2.111 4.809-4.068l17.293-34.549C231.424 93.329 229.824 88.523 225.873 86.545zM123.607 77.063l-30.438-5.689c-.875-2.54-1.889-5.065-3.019-7.516-4.346-9.425-12.004-21.073-24.433-25.691 3.067-4.001 4.895-8.998 4.895-14.417C70.613 10.654 59.958 0 46.863 0s-23.75 10.654-23.75 23.75c0 4.107 1.049 7.973 2.891 11.346-1.858.032-3.719.643-5.281 1.885C20.07 37.5 4.681 49.957.141 74.933c-.565 3.111.597 6.295 3.034 8.311 1.565 1.293 3.546 2.005 5.575 2.005 1.085 0 2.146-.198 3.157-.59l8.842-3.423c1.217 18.325 2.384 36.306 2.357 37.367-.091.696-.124 1.427-.099 2.164.02.686.091 1.363.218 2.082.261 1.416.646 2.638 1.252 3.964.318.691.591 1.171.932 1.729.375.604.784 1.183 1.116 1.582.822 1.005 1.741 1.887 2.57 2.471.217.158.608.434 1.202.828l1.964 1.191c1.77.997 3.816 2.041 5.76 2.937.88.409 1.802.821 2.739 1.235l-1.524 1.386c-3.271 3.043-6.654 6.19-10.162 10.525-1.745 2.236-3.737 4.949-5.305 8.91-.592 1.644-1.376 4.19-1.352 7.321.037 2.773.815 5.745 2.146 8.17.31.542.642 1.04 1.008 1.586l.5.716c.022.033.047.064.073.095l.52.61c.355.409.719.81 1.115 1.23.286.284.568.532.854.782l.551.479c.29.252.584.505.866.705l1.019.718c.695.506 1.342.871 1.967 1.225l.199.113c2.467 1.351 5.021 2.423 7.788 3.272l1.476.464c.17.053.348.103.525.152.21.06.419.117.553.162.339.132.684.259 1.032.378.127.044.218.091.307.134.145.07.285.137.382.169.141.063.259.119.358.167.082.04.163.078.244.114-.003.018-.006.036-.008.054-.02.138-.039.277-.05.41-.029.164-.069.337-.109.512-.037.167-.075.335-.093.433-.331 1.29-.865 2.766-1.431 4.327l-.277.767c-.729 2.026-1.374 3.864-1.908 5.847-.601 2.305-.947 4.364-1.058 6.295-.23 4.063.747 8.217 2.678 11.391 1.702 2.846 3.726 4.707 5.521 6.186.766.579 1.474 1.038 2.099 1.444l.254.164c.627.404 1.213.671 1.684.885l.288.132c.509.223 1.279.561 1.996.561.475 0 .927-.148 1.262-.578.779-1.001-.078-2.33-.572-3.096-.148-.244-.329-.499-.527-.775-.176-.246-.367-.512-.568-.833l-1.329-2.031c-.939-1.63-1.898-3.387-2.399-5.378-.516-2.053-.435-4.198.234-6.362.358-1.111.894-2.332 1.631-3.726.696-1.292 1.52-2.61 2.61-4.336l.489-.776c.859-1.36 1.834-2.903 2.805-4.804l.225-.476c.202-.425.404-.851.619-1.368.069-.191.141-.376.213-.56.186-.479.377-.974.542-1.594l.108-.417c.175-.657.354-1.337.431-2.168.057-.47.11-.936.145-1.51-.004-.517-.021-1.039-.051-1.5-.01-1.01-.271-2.011-.522-2.979l-.126-.479c-.156-.486-.353-.931-.543-1.359l-.263-.575c-.191-.414-.407-.883-.645-1.206-1.011-1.644-2.314-3.15-3.901-4.502l-.426-.346c-.512-.419-1.042-.853-1.574-1.202l-1.906-1.229c-.449-.269-.884-.499-1.323-.732l-2.125-1.143c-1.189-.624-2.338-1.354-3.303-2.094.393-.392.873-.85 1.417-1.308 2.523-2.172 6.009-4.508 9.077-6.502l9.879-6.323c.184-.118.366-.234.674-.468.645-.478 1.282-.963 1.927-1.468.625-.508 1.307-1.172 1.908-1.759l.683-.679c.026-.025.051-.053.074-.081l.558-.667c.372-.456.735-.921 1.09-1.399l.125-.17c.138-.186.271-.367.45-.643l.546-.938c.354-.636.693-1.3.986-1.933.185-.362.351-.835.5-1.288.143-.426.272-.856.392-1.289s.227-.868.326-1.322l.127-.624c.008-.036.014-.072.018-.108l.08-.71c.096-.975.132-1.965.108-2.926-.01-.958-.168-1.82-.32-2.654l-.043-.232c-.365-1.962-.966-3.364-1.671-4.896l-.286-.577-.739-1.243c-.415-.661-.766-1.185-1.092-1.625-.767-.979-1.427-1.763-1.978-2.344-.282-.288-.573-.582-.863-.867.36-.982.552-2.039.559-3.104l4.172-48.198c2.244 4.432 3.755 8.864 4.438 11.707.794 3.37 3.505 5.958 6.909 6.595l35.667 6.667c.534.1 1.078.15 1.616.15 4.205 0 7.818-3.005 8.592-7.145.43-2.297-.061-4.624-1.382-6.553C127.897 78.791 125.905 77.492 123.607 77.063zM128.143 86.813c-.553 2.957-3.133 5.104-6.135 5.104-.385 0-.774-.036-1.157-.107l-35.667-6.667c-2.431-.455-4.368-2.304-4.936-4.716-.909-3.786-3.208-10.239-6.695-15.962-.281-.462-.83-.692-1.353-.566-.526.123-.914.57-.96 1.109l-4.529 52.325c-.003.035-.005.071-.005.107 0 1.019-.23 2.024-.667 2.909-.243.492-.136 1.086.264 1.462.466.439.956.928 1.407 1.389.482.51 1.092 1.233 1.789 2.124.264.356.587.841.952 1.422l.468.774.43.81c.663 1.441 1.156 2.593 1.47 4.272l.042.231c.14.765.271 1.486.279 2.247.021.877-.011 1.766-.095 2.62l-.072.637-.111.552c-.086.393-.184.785-.291 1.176s-.226.778-.354 1.164c-.069.209-.231.697-.375.98-.287.619-.598 1.229-.911 1.791l-.499.86c-.114.175-.223.32-.333.469l-.131.178c-.327.44-.665.874-1.004 1.289l-.513.613-.619.615c-.591.576-1.202 1.172-1.722 1.594-.609.478-1.229.949-1.868 1.422-.242.185-.382.273-.521.362l-9.885 6.328c-3.146 2.044-6.719 4.44-9.344 6.699-.909.765-1.64 1.515-2.122 2.011-.157.162-.285.294-.382.386-.253.241-.394.576-.388.926.006.349.157.68.417.912l.325.288c1.242 1.063 2.838 2.127 4.466 2.981l2.144 1.153c.402.214.802.425 1.175.646l1.86 1.201c.416.273.895.664 1.357 1.043l.415.336c1.359 1.158 2.491 2.466 3.415 3.962.147.204.304.542.455.869l.246.539c.171.386.332.75.427 1.037l.107.418c.214.821.436 1.671.444 2.437.029.48.045.958.052 1.34-.029.438-.079.858-.134 1.318-.06.656-.206 1.208-.36 1.791l-.112.429c-.126.474-.285.884-.453 1.319-.078.2-.156.401-.21.554-.177.424-.363.813-.549 1.203l-.213.452c-.898 1.759-1.8 3.187-2.672 4.566l-.492.78c-.893 1.412-1.903 3.013-2.699 4.489-.811 1.532-1.401 2.885-1.81 4.15-.811 2.622-.903 5.221-.275 7.724.579 2.304 1.676 4.314 2.694 6.077l1.353 2.07c.115.185.231.356.345.521-.146-.079-.294-.166-.44-.26l-.252-.164c-.59-.383-1.258-.816-1.911-1.309-1.67-1.376-3.422-2.995-4.93-5.515-1.654-2.719-2.521-6.441-2.322-9.957.101-1.764.422-3.663.979-5.797.506-1.882 1.135-3.668 1.844-5.642l.275-.761c.587-1.62 1.141-3.15 1.517-4.624.029-.144.063-.29.095-.437.055-.239.107-.478.146-.699.008-.045.013-.091.016-.138.005-.09.021-.187.034-.282.035-.247.075-.527.047-.832-.053-.503-.633-1.707-1.532-1.874-.04-.019-.087-.042-.141-.067-.121-.059-.264-.127-.509-.232-.085-.031-.153-.066-.225-.101-.167-.081-.341-.163-.584-.248-.319-.109-.631-.225-.99-.363-.226-.076-.478-.148-.731-.22-.157-.044-.314-.088-.475-.138l-1.451-.457c-2.623-.805-5.023-1.813-7.323-3.071l-.187-.105c-.59-.334-1.147-.648-1.741-1.081l-1.03-.727c-.218-.154-.445-.354-.671-.551l-.544-.474c-.247-.216-.491-.428-.709-.644-.345-.367-.687-.744-1.013-1.118l-.473-.555-.464-.666c-.307-.456-.607-.904-.877-1.376-1.13-2.06-1.796-4.604-1.827-6.976-.021-2.724.677-4.985 1.189-6.412 1.432-3.614 3.225-6.06 4.924-8.237 3.383-4.181 6.7-7.267 9.908-10.251l2.932-2.654c.315-.284.465-.709.397-1.128-.068-.419-.344-.775-.732-.945l-.158-.069c-1.47-.645-2.938-1.287-4.306-1.924-1.888-.869-3.87-1.88-5.548-2.825l-1.885-1.142c-.508-.339-.87-.593-1.087-.751-.656-.463-1.419-1.2-2.099-2.031-.265-.317-.609-.808-.917-1.303-.296-.484-.521-.879-.787-1.458-.521-1.144-.841-2.152-1.064-3.366-.104-.589-.162-1.148-.18-1.718-.021-.606.006-1.199.08-1.77.09-.729-1.148-19.882-2.393-38.627l27.464-10.631c2.18-.844 3.9-2.486 4.845-4.624.945-2.138 1.001-4.516.157-6.695s-2.485-3.9-4.623-4.845c-2.139-.945-4.518-.999-6.695-.156l-21.14 8.184c1.518-2.73 3.08-4.934 4.443-6.629l-2.533-.832c-1.787 2.318-3.809 5.39-5.655 9.277-.22.462-.136 1.012.213 1.387.349.376.892.5 1.367.315l24.207-9.37c1.559-.604 3.257-.563 4.782.11 1.527.675 2.7 1.903 3.302 3.461 1.244 3.215-.358 6.842-3.572 8.085l-38.751 15c-2.071.804-4.521.405-6.236-1.01C3.027 79.877 2.197 77.603 2.6 75.38c4.375-24.06 19.054-35.945 19.678-36.44 1.146-.912 2.519-1.354 3.882-1.354.527 0 1.052.074 1.563.205 4.327 5.883 11.294 9.71 19.14 9.71 6.709 0 12.773-2.801 17.097-7.29 12.16 4.089 19.679 15.495 23.922 24.695 1.194 2.592 2.256 5.271 3.154 7.96.144.43.51.749.956.832l31.156 5.823c1.641.307 3.064 1.234 4.008 2.611C128.099 83.51 128.449 85.172 128.143 86.813zM68.113 23.75c0 11.718-9.532 21.25-21.25 21.25s-21.25-9.532-21.25-21.25S35.145 2.5 46.863 2.5 68.113 12.032 68.113 23.75z"/><path d="M55.913,19.677c2.073,0,3.754-1.681,3.754-3.754c0-2.073-1.681-3.754-3.754-3.754c-2.073,0-3.754,1.681-3.754,3.754
		C52.159,17.996,53.839,19.677,55.913,19.677z"/><circle cx="40.449" cy="21.082" r="3.754"/><path d="M40.106,34.539c0.324,1.443,1.562,2.173,3.683,2.173c0.214,0,0.437-0.008,0.668-0.022c1.833-0.117,4.226-0.655,6.758-1.226
		l1.354-0.304c2.566-0.573,4.783-1.068,6.372-1.721c2.185-0.897,3.111-2.156,2.756-3.743c-0.35-1.562-1.911-2.663-4.396-3.104
		c-2.146-0.38-4.829-0.251-7.558,0.36C44.511,28.127,39.355,31.184,40.106,34.539z M50.247,29.197
		c1.539-0.345,3.047-0.521,4.417-0.521c0.8,0,1.553,0.06,2.235,0.181c1.425,0.252,2.427,0.779,2.553,1.342V30.2
		c0.092,0.41-0.703,0.831-1.386,1.111c-1.408,0.578-3.536,1.054-6,1.604l-1.357,0.304c-2.441,0.55-4.748,1.068-6.4,1.175
		c-1.143,0.072-1.893-0.065-1.959-0.358C42.09,32.873,45.107,30.351,50.247,29.197z"/></svg>