<?xml version="1.0" ?><svg height="105px" version="1.1" viewBox="0 0 105 105" width="105px" xmlns="http://www.w3.org/2000/svg" xmlns:sketch="http://www.bohemiancoding.com/sketch/ns" xmlns:xlink="http://www.w3.org/1999/xlink"><title/><defs/><g fill="none" fill-rule="evenodd" id="Imoticon" stroke="none" stroke-width="1"><path d="M52,94 C75.1959606,94 94,75.1959606 94,52 C94,28.8040394 75.1959606,10 52,10 C28.8040394,10 10,28.8040394 10,52 C10,75.1959606 28.8040394,94 52,94 Z M36.5652065,42.3149414 C41.5288086,41.5439453 44.6274414,35.1948244 46.8081055,35.1948242 C48.9887695,35.194824 43.6850586,45.0419922 39.6953125,46.7036133 C35.7055667,48.3652346 26.5683593,44.1811523 26.5683594,42.9555664 C26.5683595,41.7299805 31.6016044,43.0859373 36.5652065,42.3149414 Z M38.7772111,26.9498529 C42.1695062,23.911963 44.7483383,20.1948243 45.8081055,20.1948242 C47.9887695,20.194824 44.2353516,29.3808594 40.2456055,31.0424805 C36.2558596,32.7041018 31.7211914,34.5039062 31.1240234,33.3271484 C30.8170693,32.7222757 35.1892405,30.1629754 38.7772111,26.9498529 Z M66.944462,26.9498529 C63.5521669,23.911963 60.9733347,20.1948243 59.9135676,20.1948242 C57.7329036,20.194824 61.4863215,29.3808594 65.4760676,31.0424805 C69.4658135,32.7041018 74.0004817,34.5039062 74.5976497,33.3271484 C74.9046038,32.7222757 70.5324326,30.1629754 66.944462,26.9498529 Z M67.3192297,42.3149414 C62.3556277,41.5439453 59.2569949,35.1948244 57.0763308,35.1948242 C54.8956667,35.194824 60.1993777,45.0419922 64.1891238,46.7036133 C68.1788696,48.3652346 77.316077,44.1811523 77.3160769,42.9555664 C77.3160767,41.7299805 72.2828319,43.0859373 67.3192297,42.3149414 Z M52,55.2157099 C65.1167635,55.2157099 75.75,64.8613327 75.75,76.7598128 C75.75,78.0271129 65.1167635,73.8667216 52,73.8667216 C38.8832365,73.8667216 28.25,78.0271129 28.25,76.7598128 C28.25,64.8613327 38.8832365,55.2157099 52,55.2157099 Z M52,55.2157099" fill="#000000" id="imoticon_30"/></g></svg>