<svg xmlns="http://www.w3.org/2000/svg" enable-background="new 0 0 97.01 229.498" viewBox="0 0 97.01 229.498"><circle cx="62" cy="22.5" r="22.495" transform="rotate(-76.891 62.004 22.5)"/><path d="M72.601,143.691c-0.759-1.238-1.507-2.396-2.249-3.518c-1.958-0.092-3.829-0.733-5.438-1.881
		c-10.717-7.644-18.661-16.646-23.603-26.756c-3.99-8.126-6.012-16.854-6.004-25.94c0.025-12,3.508-20.703,4.574-23.087l0.01-0.018
		l0.045-0.103c1.674-3.562,5.298-5.862,9.234-5.862c1.506,0,2.965,0.328,4.337,0.975c5.075,2.386,7.273,8.464,4.898,13.549
		c-0.072,0.171-0.162,0.394-0.279,0.7c-0.234,0.614-0.592,1.641-0.955,2.958c-0.669,2.433-1.468,6.296-1.463,10.888
		c0.004,5.954,1.322,11.662,3.921,16.962c0.017,0.034,0.038,0.067,0.054,0.102c1.219-10.293,3.471-20.274,5.036-28.271
		c2.871-9.953-0.883-21.865-9.42-23.992c-8.535-2.129-20.912,2.508-25.945,17.15c-6.809,20.174-8.268,33.303-5.682,55.519
		c1.091,5.612,3.143,9.465,5.741,12.104c0.004,0.013,0.006,0.025,0.009,0.038h-0.003c0.07,0.274,0.97,4.077,0.967,10.334
		c-0.086,13.052-3.588,36.437-27.226,63.15c-4.588,5.161-4.122,13.062,1.038,17.649c2.382,2.117,5.347,3.157,8.3,3.157
		c3.446,0,6.878-1.417,9.349-4.195c20.831-23.354,29.28-46.234,32.204-63.785c6.641,12.131,13.9,30.517,18.111,57.211
		c0.963,6.168,6.283,10.573,12.336,10.573c0.642,0,1.29-0.05,1.943-0.151c6.82-1.066,11.485-7.459,10.419-14.279
		C91.629,181.354,81.637,158.403,72.601,143.691z M29.447,135.309h0.001c0,0.001,0.001,0.002,0.001,0.002L29.447,135.309z"/><path d="M53.506,85.597c-0.004-4.665,0.777-8.689,1.543-11.474c0.383-1.393,0.76-2.474,1.021-3.165
		c0.133-0.344,0.234-0.593,0.295-0.731c0.021-0.05,0.037-0.087,0.047-0.11c1.867-3.995,0.15-8.749-3.843-10.627
		c-3.997-1.881-8.763-0.164-10.644,3.835v-0.003c-0.291,0.664-4.392,9.413-4.42,22.275c-0.007,7.339,1.401,16.056,5.781,24.973
		c4.363,8.922,11.679,17.926,22.906,25.931c1.408,1.007,3.032,1.49,4.642,1.491c2.496,0,4.956-1.165,6.517-3.351
		c2.567-3.595,1.735-8.591-1.859-11.158c-9.32-6.676-14.672-13.523-17.842-19.957C54.497,97.085,53.511,90.944,53.506,85.597z"/></svg>