<svg xmlns="http://www.w3.org/2000/svg" enable-background="new 0 0 162.702 228.882" viewBox="0 0 162.702 228.882"><path d="M37.9634,166.3887L2.9096,208.3208c-4.4277,5.2969-3.7227,13.1797,1.5742,17.6074
		c2.3389,1.9556,5.1826,2.9102,8.0098,2.9102c3.5752,0,7.125-1.5259,9.5977-4.4834l39.0742-46.7427
		c2.5303-3.0273,3.4834-7.0713,2.5703-10.9097l-0.1052-0.4423l-32.3313-27.8838L37.9634,166.3887z"/><path d="M38.4263,65.2402c0.2871-5.4736,4.8066-9.7612,10.29-9.7612c0.1758,0,0.3525,0.0044,0.5303,0.0137l17.845,0.9343
		l-9.5969-7.7454c-0.6738-0.5439-1.4092-0.9561-2.1768-1.2485c-0.7998-0.4351-1.6514-0.7793-2.5615-1.0063
		c-8.5371-2.127-20.9121,2.5078-25.9473,17.1504c-6.8047,20.1729-8.2676,33.3057-5.6816,55.5205
		c0.9473,4.873,2.6211,8.416,4.7461,10.9937c0.5986,0.875,1.3057,1.6948,2.1465,2.4199l44.2031,38.1226l17.0674,49.7979
		c1.7783,5.188,6.6299,8.4507,11.8242,8.4507c1.3438,0,2.7109-0.2188,4.0537-0.6787c6.5303-2.2383,10.0107-9.3467,7.7725-15.8774
		l-18.165-53c-0.7188-2.0972-1.9824-3.9653-3.6611-5.4131L56.98,124.4736c-0.0088-0.8696-0.04-1.7939-0.0986-2.792
		c-1.978-14.7551,1.3167-31.6135,4.0239-44.9501l-12.731-0.6666C42.5024,75.7676,38.1304,70.9116,38.4263,65.2402z"/><circle cx="69.517" cy="22.5" r="22.5"/><path d="M120.2751 27.5889l-.4489 1.339-1.3461-.4359-.6294 1.9439 1.3259.4293-.2297.6855-1.0603 3.4146-3.269.0282.0176 2.0432 2.5009-.0215 2.9103-2.0313c1.7373-1.2124 3.7754-1.8535 5.8955-1.8535h5.6699c2.2351 0 4.3002.7234 5.9902 1.9376l5.8676-.0506-2.0084 4.9553-.1589.0013c.1882.5261.3367 1.0696.4376 1.6309l.8264-.0071 2.6735-6.5956 17.4624-.1505-.0657-7.6277L120.2751 27.5889zM96.6626 76.4272c-1.7383 1.2129-3.7764 1.8535-5.8955 1.8535-.1787 0-.3584-.0044-.5381-.0137l-23.0479-1.2068 12.2871 9.9168c1.4463 1.1675 3.2256 1.7744 5.0254 1.7744 1.002 0 2.0098-.188 2.9697-.5723l37.4307-14.9727c4.1025-1.6411 6.0977-6.2969 4.457-10.3989-.751-1.8783-2.1375-3.3079-3.8105-4.156l2.2212-.069-.6124-1.6889-.2247-.6196.2532-1.1458L96.6626 76.4272z"/><path d="M131.6118,35.4302h-5.6699c-1.6377,0-3.2363,0.5024-4.5791,1.4399l-32.9209,22.978l-39.3115-2.0586
		c-4.4141-0.2241-8.1758,3.1592-8.4072,7.5708c-0.2305,4.4126,3.1582,8.1763,7.5713,8.4077l42.0547,2.2021
		c0.1396,0.0073,0.2793,0.0107,0.418,0.0107c1.6348,0,3.2334-0.501,4.5791-1.4399l33.1113-23.1108h3.1543c4.418,0,8-3.5815,8-8
		S136.0298,35.4302,131.6118,35.4302z"/></svg>